<svg width="137" height="56" fill="none" xmlns="http://www.w3.org/2000/svg"><path d="M52.7904 37.7569a3.4345 3.4345 0 0 0-1.9143.3325s-2.6713 2.2562-15.8849-.3415c-9.7143-1.9147-14.7629-1.7169-14.7629-1.7169s1.6294-11.2361 1.1842-14.3822a.9014.9014 0 0 0-.3037-.5996.8851.8851 0 0 0-.6312-.2183c-.9706 0-1.5582.3775-1.5582.8988a42.9974 42.9974 0 0 1-.2226 6.3641c-.4034 1.1163-1.1606 2.0668-2.154 2.704a5.3036 5.3036 0 0 1-3.3398.8197c-4.2295-.2967-5.1199-3.3708-5.4938-5.4652-.374-2.0945-.5877-7.9462.5253-10.3372 0 0 6.3753.2247 10.3821-3.227 4.0069-3.4517 3.7576-6.436 1.861-7.7125-1.8966-1.2764-6.3397-1.0516-9.75 2.0944-1.958 1.7267-3.5043 3.8776-4.5232 6.2922 0 0-5.013-1.0786-3.8644-6.364 1.2199-5.5192 8.6904-4.872 8.6904-4.872 1.5582.3056 1.6294.4494 2.1459-.072.5164-.5213.8904-1.8696-1.5583-1.9505C9.1694-.0772 1.8236 1.1453.4167 6.0712-1.088 11.3117 1.69 15.06 5.4208 15.6443c0 0-2.039 9.0787.4808 13.5731.6986 1.4203 1.7994 2.599 3.1628 3.3865a7.8646 7.8646 0 0 0 4.4947 1.0361c1.4692 0 4.0692-.827 4.8082-2.0225 0 0-.3472 3.218-.6411 4.3865 0 0-6.1794-.0809-8.1116.8989-3.2856 1.7528-2.6 5.8607-1.3356 7.3169 1.0685 1.2405 4.2829 1.9147 6.6068.809a8.8714 8.8714 0 0 0 3.3421-2.8267 8.985 8.985 0 0 0 1.5997-4.0947 35.0058 35.0058 0 0 1 11.1568 1.2225c5.4938 1.6539 13.1424 3.2 15.4396 3.2 2.2973 0 7.1233-.6652 7.4171-2.5978.1603-1.2764-.3116-1.9415-1.0507-2.1752ZM14.1201 7.7161s2.9205-2.2472 4.3185-.845c.3138.3418.4948.7866.5095 1.2524a1.9448 1.9448 0 0 1-.4294 1.2825c-.5877.7731-2.137 3.218-9.4917 4.4315 0 0 2.315-4.0989 5.0931-6.1214Zm.2404 34.9756s-4.0335 2.2203-4.452-.791a2.8562 2.8562 0 0 1 .1609-1.8835 2.82 2.82 0 0 1 1.2993-1.3615c.7035-.3505 1.6651-.791 5.8589-.6382a5.7201 5.7201 0 0 1-.8361 2.7106 5.6516 5.6516 0 0 1-2.031 1.9636Z" fill="#2D3440"/><path d="M65.5143 21.3342v6.1933a5.0843 5.0843 0 0 1-.7657 2.2742 5.009 5.009 0 0 1-1.0507 1.3214c-.4719.4135-.7836-.5124-.9616-.8989-1.2377-2.6158-.6411-6.1214-.1603-8.863.2226-1.3124-2.413-.9708-2.6178.1977a26.6929 26.6929 0 0 0-.4897 7.1102 1.654 1.654 0 0 0-.6659.1997 1.6687 1.6687 0 0 0-.5273.4565c-.4541.9798-1.7808 4.2338-3.4102 2.9304-1.1754-.8989-1.3-3.3619-1.4247-4.7371a14.0476 14.0476 0 0 1 .7302-5.6271c-.0535.1528 1.015-2.5438 1.4869-1.5371.1276.4798.145.9827.0509 1.4702a3.278 3.278 0 0 1-.594 1.3434c-1.3979 1.0606.7746 1.5011 1.6205.8539 1.6028-1.2135 2.6713-5.1326-.0623-5.6001-3.0897-.5213-4.8438 2.6248-5.4938 5.1237a16.4459 16.4459 0 0 0-.4452 4.3865c-.4274.7551-1.8699 3.1821-2.7157 3.5956-.9973.5213-.9795-.2068-.9439-.6742.0356-.4674.4808-4.6292.7213-7.4338a5.2307 5.2307 0 0 0-.4453-3.2809c-.3828-.782-3.5616-2.5348-6.3575.7551-1.575 1.7356-2.5389 3.9473-2.7424 6.2922-.187.3775-.3918.782-.6322 1.2224-1.3356 2.472-3.0185 3.5147-3.615 1.7978a13.8193 13.8193 0 0 1-.6678-5.5641 34.7799 34.7799 0 0 0 4.5054-10.5619c1.3356-5.9865 1.0863-8.9618.3651-9.4652-.7213-.5034-3.7842-1.7439-5.6274 5.618a48.4107 48.4107 0 0 0-1.4157 16.0721c-.285.6112-.6411 1.3483-1.0952 2.1842-1.3356 2.472-3.0096 3.5147-3.6151 1.7978a13.822 13.822 0 0 1-.6322-5.5641 34.7776 34.7776 0 0 0 4.5055-10.5619c1.3801-6.0674 1.1041-9.0427.3829-9.5461-.7213-.5034-3.7843-1.7439-5.6185 5.618s-2.1993 15.3889-.4452 20.7822c0 0 .9616 3.0382 2.7603 2.8135 1.4869-.1887 3.2588-1.6629 4.3006-4.4135.1178.5406.2634 1.0747.4363 1.6 0 0 .9616 3.0382 2.7603 2.8135 1.2198-.1528 2.6712-1.1865 3.6863-3.0742.6321 1.645 1.9945 3.0023 3.7486 2.6967 2.3773-.4315 2.8671-1.7349 2.8671-1.7349s-.0446 2.1394 1.478 2.1394c1.3535 0 2.4309-.8 3.4993-2.8405.3651-.6921.5788-1.0966.6946-1.3303.3116 1.9326 1.1041 3.6494 2.6712 4.3416 2.6712 1.1685 5.0041-1.0517 6.3753-3.245a3.8804 3.8804 0 0 0 .8404 1.419 3.8363 3.8363 0 0 0 1.35.9361 3.3085 3.3085 0 0 0 1.7987.0574 3.3307 3.3307 0 0 0 1.567-.8934v3.1641a2.2724 2.2724 0 0 0-1.3801.3775c-1.3632 1.1292-2.4205 2.5889-3.0729 4.2426a10.6185 10.6185 0 0 0-.6579 5.2137c.0376.4778.1918.9388.4488 1.3418.257.403.6089.7356 1.0242.9679a2.8558 2.8558 0 0 0 1.3559.3636 2.8548 2.8548 0 0 0 1.3649-.3272c2.7603-1.2135 3.1787-5.3933 3.4103-7.9462.5609-6.1393.1246-12.5304.1246-18.6878 0-1.1326-2.5822-.6022-2.5822.3236ZM26.933 11.2667c.6144-2.382 1.1843-3.3348 1.7808-3.3348.5966 0 .8281.6382.4096 2.6966a53.067 53.067 0 0 1-3.6417 11.4608s.837-8.4315 1.4513-10.8226Zm7.4973 0c.6143-2.382 1.1842-3.3348 1.7362-3.3348.5521 0 .837.6382.4185 2.6966-.4185 2.0585-1.7808 7.7484-3.6417 11.4608 0 0 .8904-8.4315 1.487-10.8226Zm11.4506 11.2091c-.0713.5214-.4096 3.8562-.8904 5.654-.4808 1.7978-.8103 2.436-2.2528 3.0562-1.4424.6202-2.1725-1.2764-2.1725-1.2764-1.024-2.8764.3472-5.3933 1.4869-7.1192 1.1398-1.7258 2.2884-1.8786 2.9473-1.7977.1544.0388.2996.1081.4275.2037.1279.0956.2358.2157.3177.3534.0819.1378.136.2904.1594.4493a1.2347 1.2347 0 0 1-.0231.4767Zm19.5622 16.1799a16.3956 16.3956 0 0 1-1.4068 7.0203c-.6233.1259-.8904-.1078-1.1041-1.1146a9.7315 9.7315 0 0 1 0-2.9214c.2912-1.7784 1.1624-3.4076 2.4753-4.6292.0445.5663.0445 1.1146.0356 1.6449ZM82.1827 18.7904a9.5916 9.5916 0 0 1-3.0762-2.1835 9.696 9.696 0 0 1-2.008-3.2098c-1.1397-3.4338 2.6-5.9686 5.5829-5.8158 2.9828.1528 4.5767 3.254 4.452 6.0315-.0534.9798-.6678 3.1911-1.8699 2.0405a5.7354 5.7354 0 0 1-1.389-3.263c-.1781-1.0876-2.7602-.4404-2.5822.7012.5165 3.2899 4.0247 6.9124 7.0342 3.4697a6.6337 6.6337 0 0 0 1.2667-2.662 6.667 6.667 0 0 0-.0087-2.9531 6.6321 6.6321 0 0 0-1.2822-2.6543 6.5555 6.5555 0 0 0-2.2997-1.8251 9.037 9.037 0 0 0-6.2865-.1226c-2.0436.713-3.7698 2.1359-4.8703 4.0147-2.4308 4.3596 2.4486 8.6204 5.9034 10.1754 5.5472 2.9933 5.752 12.6293-1.6206 12.6923a7.3803 7.3803 0 0 1-4.2062-1.4384c-1.2239-.9014-2.1455-2.1591-2.641-3.6044-.5075-1.5101-.2493-6.7865 1.7808-7.191 1.6117-.3147 1.1754-1.7978-.4006-1.5192-3.3035.6472-4.5233 4.9529-4.2028 7.9642.5165 4.8 4.9685 7.4877 9.4651 7.4517 1.9893.0577 3.9359-.5894 5.5021-1.829 1.5662-1.2396 2.6532-2.9935 3.0725-4.9576.3308-1.9346-.0197-3.9251-.9906-5.6261-.971-1.701-2.5012-3.0052-4.3252-3.6863Z" fill="#2D3440"/><path d="M98.7265 33.0737c-2.5377-1.4023-1.0863-6.8046-.7034-8.881.2493-1.3394 1.3801-3.4068-.4363-3.8652-2.1281-.5214-4.6569 1.5191-6.4822 3.4697a45.9813 45.9813 0 0 1 .4897-6.7237c2.8157-1.4182 5.0701-3.7606 6.3931-6.6427 1.1576-2.3371 1.7274-7.1911-2.1904-5.7709-3.5616 1.2585-4.7814 5.3933-5.8944 8.7102a27.1805 27.1805 0 0 0-.9706 3.9281 11.1326 11.1326 0 0 1-1.0863.3955c-1.478.4675-1.2822 1.2675.2137.8001l.7212-.2338c-.7123 5.0428-.2315 10.3282.2227 15.2811 0 .4854 2.6712 0 2.5732-.7011-.1959-2.2113-.365-4.4226-.4363-6.6158a1.2365 1.2365 0 0 0 .561-.3506 20.1493 20.1493 0 0 1 2.7424-2.8495c.2672-.2427.5432-.4674.8192-.6831l.4096-.3056c.5966-.4765.7123-.4854.3383 0a24.8801 24.8801 0 0 1-.552 2.5438c-.4897 2.6967-1.8966 7.9911 1.1931 9.69.6678.3416 3.0719-.6652 2.0747-1.1955Zm-5.7788-21.6721c.2761-.8001.6411-1.591.9795-2.3641.4185-.9708 1.5404-4.2877 2.3507-2.6967.65 1.2675-.374 3.3439-.8281 4.5574-.715 1.8972-1.9504 3.5497-3.5616 4.7641a33.52 33.52 0 0 1 1.0595-4.2607Z" fill="#2D3440"/><path d="M108.298 26.7725c0-2.9574-.329-6.7506-3.828-7.0653-3.838-.3505-5.3428 3.7035-5.3963 6.7327a.5342.5342 0 0 0 .077.3051.5277.5277 0 0 0 .2347.2073c0 2.8314.6766 6.5259 4.0156 6.4629 3.722-.0539 4.897-3.3348 4.897-6.6427Zm-4.452 4.9259c-2.172-.8989-1.976-4.6832-1.834-6.508a.4896.4896 0 0 0-.038-.2697.4857.4857 0 0 0-.176-.2067c.268-1.7977.962-4.4944 2.547-3.1551 1.264 1.0967 1.291 3.7304 1.353 5.2495.054 1.0607-.08 5.5551-1.843 4.89h-.009ZM136.346 42.9973c-.997-2.5887-3.188-3.5955-5.601-3.7034a10.102 10.102 0 0 0-1.006-1.8696c-3.481-5.2046-11.744-4.4945-17.345-1.7978 0-.818-.08-1.636-.116-2.454a6.4579 6.4579 0 0 0 3.249-.5818 6.5203 6.5203 0 0 0 2.548-2.1148c1.487-2.1483 1.273-5.9596.686-8.3686-.552-2.2652-2.743-1.8607-4.39-1.1057a6.5497 6.5497 0 0 0-1.656 1.1326c0-.6022.098-1.2135.142-1.7977.098-1.3843-2.529-1.0338-2.618.1887-.409 5.5641-.267 11.1102-.391 16.6654-1.58 1.3105-2.835 2.9755-3.666 4.8622a13.3721 13.3721 0 0 0-1.116 6.0053c0 2.0404 1.719 3.5955 3.562 2.1393 2.573-1.9955 3.357-5.9596 3.713-8.9888.146-1.352.193-2.713.142-4.072 2.008-1.3292 4.353-2.0447 6.754-2.0607a12.3766 12.3766 0 0 1 6.78 1.9708 6.2275 6.2275 0 0 1 2.022 2.427 16.1788 16.1788 0 0 0-4.114 1.3304c-1.523.7371-3.784 2.4809-3.677 4.4315a2.7097 2.7097 0 0 0 .546 1.7125c.372.4909.898.8382 1.493.9841a.7935.7935 0 0 0 .258.0809c5.467.8989 9.536-2.364 8.753-6.9573 2.671 1.4651 3.659 4.8629 2.715 7.7843-2.128 6.5619-10.32 8.027-15.092 3.6405-.517-.4674-2.84.5213-2.431.8989 6.892 6.3551 24.059.4764 19.856-10.3822Zm-26.659-1.591a14.0462 14.0462 0 0 1-1.015 4.6203 19.491 19.491 0 0 1-.721 1.4382s-.231.0539-.276-.6472c-.004-2.5183.72-4.9831 2.084-7.0922-.018.5573-.036 1.1236-.072 1.6809Zm2.787-16.0541a.6997.6997 0 0 0 .134-.1528 12.578 12.578 0 0 1 1.692-2.2562 7.024 7.024 0 0 1 1.611-1.3663c.285.1438.579.8989.686 1.9147.276 2.4988.392 9.0787-3.508 8.4585a2.123 2.123 0 0 0-.891.1528c-.009-2.2832.116-4.5124.276-6.7507Zm11.647 21.3396h-.054c-1.495-.3596-1.335-1.7978-1.139-2.7686.436-2.2742 3.178-3.4967 5.44-3.5955 1.149 3.2359.267 7.1101-4.247 6.3641Z" fill="#2D3440"/></svg>