<svg width="189" height="169" fill="none" xmlns="http://www.w3.org/2000/svg"><path fill="#FCFCFC" d="M-59-123h312v352H-59z"/><path d="M17.0259 142.202c.8761 0 1.7369.223 2.4961.648.7593.425 1.3902 1.036 1.8298 1.772.4395.736.6722 1.571.6747 2.422.0024.851-.2254 1.688-.6607 2.426.302.042.586.165.8201.355.2342.19.4093.439.5058.72.0964.281.1104.583.0403.871-.07.288-.2214.552-.437.762-.2157.209-.4872.356-.784.424-.2969.068-.6074.055-.8967-.039s-.5461-.264-.7415-.491c-.1954-.228-.3218-.504-.3649-.797-.0619.035-.1255.067-.1892.1-.0884.529-.3676 1.009-.7877 1.357-.4201.347-.9536.537-1.5051.537-.5515 0-1.085-.19-1.5051-.537-.4201-.348-.6993-.828-.7877-1.357-.0637-.033-.1273-.065-.1892-.1-.043.294-.1694.57-.365.797-.1956.228-.4526.398-.7423.492-.2896.094-.6004.107-.8974.039-.2971-.069-.5686-.216-.7841-.426-.2156-.21-.3666-.474-.4362-.763-.0695-.289-.0549-.591.0423-.872.0973-.281.2732-.53.5082-.719.2349-.19.5195-.312.8218-.353-.435-.738-.6628-1.574-.6606-2.424.0023-.851.2344-1.686.6734-2.422.4389-.736 1.0691-1.347 1.8276-1.772.7585-.425 1.6186-.649 2.4943-.65Zm0-1.202c-.9816-.001-1.9495.224-2.8249.655-.8754.432-1.6336 1.058-2.2128 1.828-.5793.769-.9632 1.661-1.1206 2.602-.1573.941-.0837 1.905.2149 2.814-.5787.448-.9571 1.096-1.0565 1.808-.09932.712.0881 1.435.5233 2.016.4351.582 1.0844.978 1.8128 1.106.7283.128 1.4794-.021 2.0969-.418.3335.336.7333.604 1.1755.786.4423.183.9179.277 1.3985.277.4805 0 .9561-.094 1.3984-.277.4422-.182.842-.45 1.1755-.786.6178.374 1.3583.506 2.0723.369.714-.136 1.3483-.53 1.7749-1.102.4266-.573.6138-1.281.5238-1.983-.09-.701-.4504-1.343-1.0087-1.796.2987-.909.3723-1.873.2149-2.814-.1573-.941-.5413-1.833-1.1205-2.602-.5792-.77-1.3374-1.396-2.2128-1.828-.8754-.431-1.8433-.656-2.8249-.655Z" fill="#2D3440"/><path d="M21.1325 154.533c-.4868-.002-.9681-.1-1.4142-.289-.0655.052-.1344.098-.2033.146l.0937.089-.6895.67-.2952-.287c-.122.047-.2457.088-.373.124l.4172.405-.6877.67-.693-.67.274-.266c-.1759.022-.353.033-.5303.034-.172 0-.3438-.011-.5144-.032l.2722.264-.6894.67-.6895-.67.4137-.402a3.99441 3.99441 0 0 1-.3713-.123l-.2969.283-.6966-.67.0867-.084c-.0725-.05-.1432-.098-.2122-.151-.4461.189-.9274.287-1.4142.289h-.1061c-.0134.093-.0037.188.0283.278l3.6028 9.808c.0039.012.0087.023.0141.034.0048.012.0108.024.0177.034.0124.025.0265.047.0407.069l.0159.022c.0217.029.046.055.0725.079l.0176.014.069.052.0318.017c.0245.013.0499.025.076.034h.0195l.0707.017h.0283a.549.549 0 0 0 .198 0h.03l.0689-.017h.0301c.0254-.01.0502-.021.0742-.034l.0319-.019c.0248-.014.0479-.031.0689-.05l.0195-.014c.026-.024.0502-.051.0724-.079l.0142-.022c.0158-.022.03-.045.0424-.069l.0318-.068 3.6099-9.813c.0328-.09.0425-.185.0283-.279-.0354 0-.0619.006-.1061.006Zm-2.4749 2.683-.6895.67-.6806-.67.6877-.669.6824.669Zm-2.3141.912.6895-.67.6894.67-.6894.67-.6895-.67Zm1.3789 1.825-.6894.67-.6895-.67.6895-.669.6894.669Zm-.6894-4.318.6894.67-.6894.664-.6895-.67.6895-.664Zm-.2493 1.581-.6894.67-.6895-.67.6895-.669.6894.669Zm-2.6358-2.428.0672-.065.6894.668-.3942.376-.3624-.979Zm.4879 1.345.5127-.498.6877.67-.6806.664-.3165-.307-.2033-.529Zm.5003 1.351.0195-.019.6876.67-.3447.343-.3624-.994Zm.7372 2.018-.251-.687.4649-.45.6894.67-.6823.681-.221-.214Zm.6063 1.652-.3305-.897.6275.608-.297.289Zm.5392 1.47-.4083-1.113.4154-.404.4048.394-.4119 1.123Zm.5445-1.481-.2758-.278.6028-.587-.327.865Zm.6081-1.619-.1997.192-.6842-.676.6877-.668.4543.44-.2581.712Zm.3925-1.07-.3341-.326.6894-.67v.009l-.3553.987Zm.6488-1.767-.3006.282-.6894-.67.6894-.669.4968.493-.1962.564Zm.3323-.92-.3836-.374.6894-.67.0566.055-.3624.989ZM177 141c-1.469.002-2.886.541-3.983 1.517-1.098.975-1.8 2.319-1.975 3.777H171v11.915h12v-11.915h-.042c-.175-1.458-.877-2.802-1.975-3.777-1.097-.976-2.514-1.515-3.983-1.517Zm4.588 15.798h-9.176v-6.509c.131.158.298.282.487.361.19.078.396.11.6.091.91 0 1.503-.508 1.503-1.15v-.615c-.009-.084 0-.17.026-.251.026-.081.069-.156.126-.219.057-.064.127-.115.205-.149.077-.035.162-.053.247-.053.085 0 .169.018.247.053.078.034.148.085.205.149.057.063.1.138.126.219.026.081.035.167.025.251v2.323c.003.187.045.371.124.54.078.17.192.321.334.443.141.122.307.212.486.266.179.053.368.068.553.043.181.025.365.013.541-.036.175-.05.339-.135.48-.252.141-.116.256-.26.338-.424.081-.163.128-.341.137-.524v-1.56c-.011-.131.005-.264.048-.389.042-.125.11-.24.2-.337.089-.097.197-.175.318-.228.121-.053.252-.081.384-.081s.262.028.383.081c.121.053.23.131.319.228s.157.212.2.337c.042.125.059.258.047.389-.002.021-.002.043 0 .064.018.136.071.266.154.376.083.11.193.197.319.252v6.353l.014-.042ZM175.941 163.941c0 .281.112.55.31.749.199.198.468.31.749.31.281 0 .55-.112.749-.31.198-.199.31-.468.31-.749v-5.026h-2.118v5.026ZM59.3917 144.802c0-1.008-.3688-1.975-1.0252-2.688-.6563-.713-1.5466-1.114-2.4748-1.114-.9283 0-1.8185.401-2.4749 1.114-.6564.713-1.0251 1.68-1.0251 2.688v11.066c-.8973.995-1.3973 2.334-1.3917 3.727-.0024.892.1991 1.77.5862 2.557.3872.787.9481 1.456 1.6323 1.95.6842.493 1.4704.794 2.288.875.8176.082 1.6411-.058 2.3967-.407s1.4196-.897 1.9324-1.593c.5129-.697.8586-1.521 1.0061-2.398.1475-.878.0923-1.781-.1608-2.63-.2531-.848-.6961-1.615-1.2892-2.232v-10.915Zm.1252 14.793c.0071.659-.1412 1.31-.4308 1.89-.2895.58-.7106 1.069-1.2234 1.423-.5128.353-1.1002.558-1.7065.595-.6062.038-1.2112-.094-1.7575-.382-.5462-.288-1.0156-.723-1.3637-1.263-.348-.541-.563-1.169-.6247-1.825-.0616-.657.0322-1.319.2725-1.925.2403-.606.6191-1.135 1.1005-1.537v-11.769c0-.607.2222-1.19.6176-1.619.3953-.43.9316-.671 1.4908-.671.5591 0 1.0954.241 1.4908.671.3954.429.6175 1.012.6175 1.619v11.626c.4696.355.8529.829 1.1171 1.38.2642.552.4014 1.165.3998 1.787Z" fill="#2D3440"/><path d="M56.6501 157.229v-12.374c0-.2-.0733-.393-.2038-.534-.1305-.142-.3075-.222-.492-.222s-.3615.08-.492.222c-.1305.141-.2038.334-.2038.534v12.374c-.4643.178-.8556.529-1.1047.99-.2492.462-.3402 1.004-.2569 1.531.0833.527.3354 1.006.7119 1.351.3765.344.8531.533 1.3455.533.4924 0 .969-.189 1.3455-.533.3765-.345.6286-.824.7119-1.351.0833-.527-.0077-1.069-.2569-1.531-.2491-.461-.6404-.812-1.1047-.99ZM65 143.956h-4.1749v1.511H65v-1.511ZM65 146.979h-4.1749v1.512H65v-1.512ZM65 150.003h-4.1749v1.511H65v-1.511ZM65 153.026h-4.1749v1.512H65v-1.512ZM103.993 154.864c-.305-6.807-6.2359-13.398-6.5003-13.685h-.0339l-.0813-.093-.0882-.057h-.3795L96.781 141h-.0339l-.122.086-.0746.064h-.0339c-.2644.316-6.1955 6.914-6.5141 13.714-.0033.05-.0033.1 0 .15v.781c.2576 7.38 6.7785 9.185 6.8327 9.2h.1695c.0562.007.1131.007.1694 0 .061 0 6.5749-1.856 6.8259-9.2v-.781c0-.05-.007-.1-.007-.15Zm-12.201-2.515c1.354 1.23 2.8848 2.224 4.5348 2.945v3.26c-1.6607-.867-4.2162-2.408-4.9686-3.762.0611-.827.1996-1.645.4135-2.443h.0203Zm1.3557-3.654c.8866.979 1.9744 1.729 3.1791 2.192v2.823c-1.5145-.675-2.8945-1.648-4.0671-2.866.2579-.733.5544-1.451.888-2.149Zm8.6153 2.149c-1.172 1.219-2.552 2.191-4.0669 2.866v-2.823c1.195-.467 2.2731-1.217 3.1519-2.192.342.688.647 1.396.915 2.121v.028Zm-4.0669-1.476v-5.731c.9059 1.174 1.7326 2.414 2.4739 3.711-.6536.879-1.5103 1.564-2.4875 1.992l.0136.028Zm0 9.2v-3.274c1.6563-.715 3.1939-1.704 4.5549-2.931.208.801.339 1.622.393 2.451-.745 1.332-3.3008 2.866-4.9615 3.725l.0136.029Zm-1.3557-9.2c-.9817-.432-1.8393-1.129-2.4877-2.02.7401-1.309 1.5669-2.561 2.4741-3.747l.0136 5.767Zm-4.8398 7.688c1.4825 1.231 3.1036 2.264 4.8262 3.074v3.152c-1.2323-.529-2.3197-1.376-3.1627-2.464-.8431-1.087-1.415-2.381-1.6635-3.762Zm6.1819 6.234v-3.167c1.7241-.804 3.3455-1.835 4.8265-3.067-.238 1.387-.806 2.686-1.65 3.777-.845 1.09-1.9378 1.936-3.1765 2.457ZM145.062 148.715c.543-1.113.854-2.319.913-3.549.059-1.23-.135-2.459-.57-3.616-.046-.141-.134-.265-.252-.359-.119-.093-.264-.15-.416-.165-.152-.014-.305.015-.44.084s-.246.175-.32.304c-.991 1.714-3.122 4.477-4.683 4.606h-.07c-.717-.137-1.446-.213-2.177-.227-.734.014-1.465.09-2.185.227h-.055c-1.561-.121-3.723-2.884-4.722-4.598-.069-.137-.18-.251-.318-.325a.80108.80108 0 0 0-.453-.094.8031.8031 0 0 0-.428.171c-.121.098-.209.229-.252.376-.443 1.153-.644 2.38-.591 3.608.052 1.229.356 2.436.895 3.55-1.358.166-3.082.588-3.707 1.653-.151.252-.231.539-.231.83 0 .292.08.579.231.831.179.308.445.561.767.728.322.167.687.242 1.052.216.646-.013 1.286-.136 1.888-.363-.005.408.029.814.102 1.216.348 1.341.805 2.654 1.365 3.926.149.354.313.755.398.996-.256.606-.457 1.233-.6 1.873-.038.452.021.906.171 1.336.15.43.389.825.703 1.163 1.131 1.253 3.121 1.887 5.946 1.887 2.826 0 4.823-.634 5.947-1.887.315-.337.555-.732.705-1.162.151-.43.208-.885.169-1.337-.141-.64-.339-1.267-.593-1.873.086-.241.25-.634.39-.996.567-1.27 1.024-2.583 1.366-3.926.079-.401.115-.808.109-1.216.583.22 1.201.343 1.827.363.365.026.731-.049 1.054-.216.323-.167.591-.42.772-.728.151-.252.231-.539.231-.831 0-.291-.08-.578-.231-.83-.617-1.027-2.342-1.48-3.707-1.646Zm-.742-5.013c.282 1.579.007 3.203-.78 4.613-.196-.23-.404-.449-.624-.657-.441-.392-.945-.713-1.491-.951 1.126-.845 2.103-1.86 2.895-3.005Zm-14.601 0c.784 1.153 1.76 2.174 2.887 3.02-.545.231-1.044.553-1.475.951-.223.207-.434.427-.632.657-.789-1.414-1.064-3.044-.78-4.628Zm-3.075 7.595c-.07-.121-.047-.158 0-.189.179-.294 1.085-.755 2.817-.928-.086.219-.164.438-.234.664-1.015.506-2.372.823-2.583.453Zm16.826 2.265c-.327 1.239-.75 2.453-1.265 3.631-.203.462-.383.933-.538 1.412l-.047.234.086.212c.247.575.448 1.169.601 1.774.008.238-.032.475-.12.698-.087.223-.218.427-.387.601-.562.626-1.842 1.366-4.769 1.366-2.926 0-4.206-.755-4.768-1.366-.337-.353-.519-.819-.507-1.299.156-.605.359-1.199.608-1.774l.086-.212-.054-.234c-.147-.483-.324-.957-.531-1.419-.524-1.184-.952-2.406-1.28-3.654-.149-.87-.076-1.763.212-2.599.289-.837.784-1.593 1.442-2.203 1.179-1.147 3.848-1.404 4.777-1.412.928-.007 3.543.257 4.791 1.427.663.604 1.162 1.357 1.452 2.192.29.835.362 1.726.211 2.595v.03Zm3.902-2.265c-.203.362-1.561.053-2.529-.445-.062-.227-.14-.446-.226-.672 1.717.173 2.614.634 2.786.928.039.031.055.068-.016.189h-.015Z" fill="#2D3440"/><path fill-rule="evenodd" clip-rule="evenodd" d="M70.1667 38.25c-.3682 0-.6667.2985-.6667.6667 0 .3682.2985.6666.6667.6666h1.7712l.4675 2.3354c.0028.018.0064.0357.0106.0531l.9674 4.8334.0001.0005a1.82553 1.82553 0 0 0 1.8183 1.4691h5.6207a1.82558 1.82558 0 0 0 1.8185-1.4696l.001-.005.9271-4.8615a.66678.66678 0 0 0-.1412-.5498.66674.66674 0 0 0-.5137-.2417h-9.3035l-.4726-2.3614c-.0624-.3115-.336-.5358-.6537-.5358h-2.3177Zm4.5243 8.2944-.8134-4.0639h8.2308l-.7756 4.0669a.49221.49221 0 0 1-.1737.2855.49257.49257 0 0 1-.3181.1087v-.0001H75.1961v-.0001l-.0127.0002a.49257.49257 0 0 1-.3181-.1087.4919.4919 0 0 1-.1741-.2875l-.0002-.001Zm-1.1336 3.961c0-.6879.5577-1.2457 1.2457-1.2457.6879 0 1.2457.5578 1.2457 1.2457 0 .688-.5578 1.2457-1.2457 1.2457-.688 0-1.2457-.5577-1.2457-1.2457Zm6.3733 0c0-.6879.5577-1.2457 1.2457-1.2457.688 0 1.2457.5578 1.2457 1.2457 0 .688-.5577 1.2457-1.2457 1.2457-.688 0-1.2457-.5577-1.2457-1.2457ZM53 13c0 4.4183-3.5817 8-8 8s-8-3.5817-8-8c0-4.41828 3.5817-8 8-8s8 3.58172 8 8Zm-6.381.6h-.9523V17h-1.5238v-3.4H43V12h1.1429v-1.12c0-1.2172.7344-1.88 1.7687-1.88.4953 0 .9642.0388 1.0884.056V10.4h-.5714c-.7619 0-.7619.388-.7619.8v.8H47l-.381 1.6ZM85 13c0 4.4183-3.5817 8-8 8s-8-3.5817-8-8c0-4.41828 3.5817-8 8-8s8 3.58172 8 8Zm-6.3512-3.976C78.2224 9.004 78.0868 9 77 9s-1.2224.0052-1.6488.024c-.4264.02-.716.0868-.9712.186a1.95926 1.95926 0 0 0-.7088.4612 1.95205 1.95205 0 0 0-.4612.7088c-.0992.2552-.166.5448-.186.9712-.02.4264-.024.562-.024 1.6488s.0052 1.2224.024 1.6488c.02.426.0868.7164.186.9712.1004.267.2578.5089.4612.7088.1998.2036.4417.361.7088.4612.2552.0988.5452.166.9712.186.4264.02.562.024 1.6488.024s1.2224-.0052 1.6488-.024c.426-.02.7164-.0872.9712-.186.2669-.1005.5088-.2579.7088-.4612.2036-.1998.3611-.4417.4612-.7088.0988-.2552.166-.5452.186-.9712.02-.4264.024-.562.024-1.6488s-.0052-1.2224-.024-1.6488c-.02-.426-.0872-.7164-.186-.9712a1.96264 1.96264 0 0 0-.4612-.7088c-.2224-.222-.4448-.3596-.7088-.4612-.2552-.0992-.5452-.166-.9712-.186Zm-3.063 2.5618a1.99997 1.99997 0 1 1 2.8284 2.8284 1.99997 1.99997 0 1 1-2.8284-2.8284Zm3.8678-1.0394c.0937.0938.1464.221.1464.3536 0 .1326-.0527.2598-.1464.3536A.50042.50042 0 0 1 79.1 11.4a.50042.50042 0 0 1-.3536-.1464A.50042.50042 0 0 1 78.6 10.9c0-.1326.0527-.2598.1464-.3536A.50042.50042 0 0 1 79.1 10.4c.1326 0 .2598.0527.3536.1464Zm-1.6051 1.6051A1.19958 1.19958 0 0 0 77 11.8c-.3183 0-.6235.1264-.8485.3515-.2251.225-.3515.5302-.3515.8485s.1264.6235.3515.8485c.225.2251.5302.3515.8485.3515s.6235-.1264.8485-.3515c.2251-.225.3515-.5302.3515-.8485s-.1264-.6235-.3515-.8485ZM117 13c0 4.4183-3.582 8-8 8s-8-3.5817-8-8c0-4.41828 3.582-8 8-8s8 3.58172 8 8Zm-7.608 1.9833h-.478s-1.055.0556-1.984-.7922c-1.013-.9247-1.908-2.7598-1.908-2.7598s-.052-.1203.004-.1784c.063-.0654.235-.0696.235-.0696l1.143-.0066s.108.0158.185.0654c.063.0409.099.1175.099.1175s.185.4095.429.7799c.478.7233.7.8815.862.804.237-.113.166-1.0224.166-1.0224s.004-.3301-.119-.4771c-.096-.1139-.276-.1472-.355-.1565-.065-.0075.041-.1384.178-.1971.206-.0883.569-.0934.998-.0895.334.003.431.0212.561.0489.304.0642.294.27.274.7138-.006.1326-.013.2865-.013.4643 0 .04-.002.0826-.003.1264-.007.2274-.015.4876.156.5843.087.0495.301.0075.837-.7897.254-.3778.444-.8221.444-.8221s.042-.0792.106-.1131c.067-.0347.156-.024.156-.024l1.203-.0066s.361-.0378.42.1052c.061.1501-.135.5006-.627 1.0746-.463.5415-.69.7429-.672.9195.013.1308.16.2481.445.48.592.4817.75.7346.788.7947.003.0049.005.0085.007.0109.265.3851-.294.4153-.294.4153l-1.069.013s-.229.0399-.531-.142c-.158-.0951-.313-.2503-.46-.3982-.225-.2261-.433-.435-.61-.3857-.298.0828-.289.6452-.289.6452s.002.1201-.066.1841c-.073.0697-.218.0836-.218.0836ZM46 38.6667c0-.3682.2985-.6667.6667-.6667h2.6666c.5305 0 1.0392.2107 1.4142.5858.3751.3751.5858.8838.5858 1.4142v9.3333c0 .5305-.2107 1.0392-.5858 1.4142-.375.3751-.8837.5858-1.4142.5858h-2.6666c-.3682 0-.6667-.2984-.6667-.6666 0-.3682.2985-.6667.6667-.6667h2.6666c.1768 0 .3464-.0702.4714-.1953A.66635.66635 0 0 0 50 49.3333V40a.66635.66635 0 0 0-.1953-.4714.66677.66677 0 0 0-.4714-.1953h-2.6666c-.3682 0-.6667-.2984-.6667-.6666Zm-3.1381 2.1952c.2603-.2603.6824-.2603.9428 0l3.3291 3.3291a.68107.68107 0 0 1 .0486.0532.66053.66053 0 0 1 .0804.1238c.0451.0898.0705.1913.0705.2987 0 .1086-.0259.2111-.072.3018a.67162.67162 0 0 1-.0737.1143.6804.6804 0 0 1-.0541.0598l-3.3288 3.3288c-.2604.2604-.6825.2604-.9428 0-.2604-.2603-.2604-.6825 0-.9428l2.1952-2.1953h-6.3904c-.3682 0-.6667-.2984-.6667-.6666 0-.3682.2985-.6667.6667-.6667h6.3905l-2.1953-2.1953c-.2604-.2603-.2604-.6824 0-.9428ZM7.66341 44.3301c0-2.5774 2.08934-4.6667 4.66669-4.6667 2.5773 0 4.6666 2.0893 4.6666 4.6667 0 1.2573-.4972 2.3984-1.3057 3.2375a.68334.68334 0 0 0-.0657.0577.6844.6844 0 0 0-.0577.0658c-.8391.8085-1.9803 1.3056-3.2375 1.3056-2.57735 0-4.66669-2.0893-4.66669-4.6666Zm8.41179 4.6879c-1.0265.8211-2.3285 1.3121-3.7451 1.3121-3.31373 0-6.00002-2.6863-6.00002-6s2.68629-6 6.00002-6c3.3137 0 6 2.6863 6 6 0 1.4167-.491 2.7187-1.3121 3.7451l2.4501 2.4501c.2604.2604.2604.6825 0 .9429-.2603.2603-.6824.2603-.9428 0l-2.4501-2.4502ZM113.803 73.1381c.26-.2604.26-.6825 0-.9428-.26-.2604-.682-.2604-.943 0l-3.861 3.861-3.861-3.861c-.26-.2604-.682-.2604-.943 0-.26.2603-.26.6824 0 .9428l3.861 3.861-3.861 3.8611c-.26.2604-.26.6825 0 .9428.261.2604.683.2604.943 0l3.861-3.861 3.861 3.861c.261.2604.683.2604.943 0 .26-.2603.26-.6824 0-.9428l-3.861-3.8611 3.861-3.861ZM109 39.3333c-3.129 0-5.667 2.5372-5.667 5.667 0 3.1297 2.538 5.6669 5.667 5.6669 3.13 0 5.667-2.5372 5.667-5.6669 0-3.1298-2.537-5.667-5.667-5.667Zm-7 5.667C102 41.1341 105.134 38 109 38s7.001 3.1341 7.001 7.0003c0 3.8661-3.135 7.0002-7.001 7.0002-3.866 0-7-3.1341-7-7.0002Zm7-.667c.368 0 .667.2985.667.6667v2.5334c0 .3682-.299.6667-.667.6667-.368 0-.667-.2985-.667-.6667V45c0-.3682.299-.6667.667-.6667Zm0-2.5334c-.368 0-.667.2985-.667.6667 0 .3681.299.6666.667.6666h.007c.368 0 .666-.2985.666-.6666 0-.3682-.298-.6667-.666-.6667H109ZM14.8033 72.8051c.2597-.2597.2597-.6807 0-.9404-.2597-.2597-.6807-.2597-.9404 0l-4.66808 4.6681c-.25885.2588-.2597.678-.00256.9379a.12832.12832 0 0 1 .0035.0035l4.66804 4.6681c.2597.2597.6808.2597.9405 0 .2597-.2597.2597-.6808 0-.9405l-4.1988-4.1988 4.1978-4.1979ZM44.1353 71.8647c-.2597-.2597-.6808-.2597-.9405 0-.2597.2597-.2597.6807 0 .9404l4.2013 4.2013-4.2013 4.2013c-.2597.2597-.2597.6808 0 .9405.2597.2597.6807.2597.9404 0l4.6687-4.6687c.001-.001.0019-.0019.0029-.0028.2597-.2597.2597-.6808 0-.9405l-4.6715-4.6715ZM72.808 75.1953c-.2604-.2604-.6825-.2604-.9428 0-.2604.2603-.2604.6824 0 .9428l4.6603 4.6603.0063.0063c.1307.1307.3021.1958.4734.1953.17-.0005.3398-.0656.4695-.1953l.0062-.0062 4.6603-4.6604c.2604-.2604.2604-.6825 0-.9428-.2603-.2604-.6824-.2604-.9428 0l-4.1952 4.1952-4.1952-4.1952Z" fill="#2D3440"/><path d="M18.8911 7.99447a3.66728 3.66728 0 0 0-1.1897-.79528 3.66685 3.66685 0 0 0-2.8072 0 3.66728 3.66728 0 0 0-1.1897.79528l-.7067.70667-.7067-.70667a3.66753 3.66753 0 0 0-6.26083 2.59333c0 .9727.3864 1.9055 1.0742 2.5933l.70666.7067 5.18667 5.1867 5.1867-5.1867.7066-.7067a3.66632 3.66632 0 0 0 .7953-3.99686 3.66657 3.66657 0 0 0-.7953-1.18977Z" fill="#2D3440"/><path fill-rule="evenodd" clip-rule="evenodd" d="M75.4747 104.808c.2603-.26.2603-.682 0-.943-.2604-.26-.6825-.26-.9428 0l-4.6667 4.667c-.2604.26-.2604.682 0 .943l4.6667 4.666c.2603.261.6824.261.9428 0 .2603-.26.2603-.682 0-.942l-3.5286-3.529h11.7272c.3681 0 .6666-.299.6666-.667 0-.368-.2985-.666-.6666-.666H71.9461l3.5286-3.529ZM15.478 103.865c-.2603-.26-.6824-.26-.9428 0-.2603.261-.2603.683 0 .943l3.5286 3.529H6.33659c-.36819 0-.66667.298-.66667.666 0 .368.29848.667.66667.667H18.0638l-3.5286 3.529c-.2603.26-.2603.682 0 .942.2604.261.6825.261.9428 0l4.6667-4.666c.2604-.261.2604-.683 0-.943l-4.6667-4.667ZM109.67 102.337c0-.369-.299-.667-.667-.667-.368 0-.666.298-.666.667v11.723l-3.529-3.528c-.26-.26-.682-.26-.943 0-.26.26-.26.682 0 .943l4.667 4.666c.26.261.682.261.943 0l4.666-4.666c.261-.261.261-.683 0-.943-.26-.26-.682-.26-.942 0l-3.529 3.528v-11.723ZM40.3536 104.146c-.1953-.195-.5119-.195-.7072 0-.1952.196-.1952.512 0 .708L41.7929 107l-2.1465 2.146c-.1952.196-.1952.512 0 .708.1953.195.5119.195.7072 0l2.5-2.5c.1952-.196.1952-.512 0-.708l-2.5-2.5Zm3.4999 0c-.1952-.195-.5118-.195-.7071 0-.1952.196-.1952.512 0 .708L45.2929 107l-2.1465 2.146c-.1952.196-.1952.512 0 .708.1953.195.5119.195.7071 0l2.5-2.5c.1953-.196.1953-.512 0-.708l-2.5-2.5Z" fill="#2D3440"/></svg>