<svg width="17" height="16" viewBox="0 0 17 16" fill="none" xmlns="http://www.w3.org/2000/svg"><path fill-rule="evenodd" clip-rule="evenodd" d="M1.3125.4896a.6667.6667 0 0 0 0 1.3333h2.061l.5397 2.6963a.6625.6625 0 0 0 .0111.0556l1.0888 5.4398.0001.0005a1.9705 1.9705 0 0 0 1.9632 1.5858h6.3247a1.9704 1.9704 0 0 0 1.9633-1.5863l.001-.005 1.043-5.4692a.6669.6669 0 0 0-.6549-.7915H5.1188l-.5451-2.7235A.6667.6667 0 0 0 3.92.4896H1.3125Zm5.0082 9.2643-.935-4.6717h9.462l-.8915 4.6747a.6366.6366 0 0 1-.6366.5107v-.0001H6.9707v-.0001l-.0128.0002a.6366.6366 0 0 1-.637-.5128l-.0002-.001Zm-1.1103 4.4397c0-.7279.5902-1.3181 1.3181-1.3181.728 0 1.318.5902 1.318 1.3181 0 .728-.59 1.3181-1.318 1.3181-.728 0-1.318-.5901-1.318-1.3181Zm7.17 0c0-.7279.5901-1.3181 1.3181-1.3181.7279 0 1.3181.5902 1.3181 1.3181 0 .728-.5902 1.3181-1.3181 1.3181-.728 0-1.3181-.5901-1.3181-1.3181Z" fill="#2D3440"/></svg>
